HIERARCHY
ROOT Hips
{
	OFFSET 0.000000 83.214638 0.000000
	CHANNELS 6 Xposition Yposition Zposition Xrotation Yrotation Zrotation
	JOINT Pelvis
	{
		OFFSET 0.000000 0.000000 0.000000
		CHANNELS 3 Xrotation Yrotation Zrotation
		JOINT LeftUpLeg
		{
			OFFSET 8.479700 -4.795502 -0.379100
			CHANNELS 3 Xrotation Yrotation Zrotation
			JOINT LeftLeg
			{
				OFFSET 0.024144 -32.555107 0.112900
				CHANNELS 3 Xrotation Yrotation Zrotation
				JOINT LeftFoot
				{
					OFFSET -0.024144 -32.638630 -3.012600
					CHANNELS 3 Xrotation Yrotation Zrotation
					JOINT LeftToeBase
					{
						OFFSET 0.970200 -13.225400 11.864200
						CHANNELS 3 Xrotation Yrotation Zrotation
						End Site
						{
							OFFSET 0.000000 12.319262 0.000000
						}
					}
					JOINT LFootTongue
					{
						OFFSET 1.142400 -1.059800 6.665200
						CHANNELS 3 Xrotation Yrotation Zrotation
						End Site
						{
							OFFSET 0.000000 12.319262 0.000000
						}
					}
				}
				JOINT LeftPantLeg
				{
					OFFSET 0.918482 -16.533964 -2.284700
					CHANNELS 3 Xrotation Yrotation Zrotation
					End Site
					{
						OFFSET 0.350399 24.744368 0.000000
					}
				}
			}
		}
		JOINT RightUpLeg
		{
			OFFSET -8.479700 -4.795502 -0.379100
			CHANNELS 3 Xrotation Yrotation Zrotation
			JOINT RightLeg
			{
				OFFSET -0.023144 -32.555092 0.112900
				CHANNELS 3 Xrotation Yrotation Zrotation
				JOINT RightFoot
				{
					OFFSET 0.023144 -32.638641 -3.012700
					CHANNELS 3 Xrotation Yrotation Zrotation
					JOINT RightToeBase
					{
						OFFSET -0.970200 -13.225400 11.864200
						CHANNELS 3 Xrotation Yrotation Zrotation
						End Site
						{
							OFFSET 0.000000 12.319244 0.000000
						}
					}
					JOINT RFootTongue
					{
						OFFSET -1.142200 -1.059800 6.665200
						CHANNELS 3 Xrotation Yrotation Zrotation
						End Site
						{
							OFFSET 0.000000 12.319243 0.000000
						}
					}
				}
				JOINT RightPantLeg
				{
					OFFSET -0.919482 -16.533978 -2.284800
					CHANNELS 3 Xrotation Yrotation Zrotation
					End Site
					{
						OFFSET -0.350400 24.744419 0.000000
					}
				}
			}
		}
	}
	JOINT Spine
	{
		OFFSET 0.000000 7.722000 1.166200
		CHANNELS 3 Xrotation Yrotation Zrotation
		JOINT Spine1
		{
			OFFSET 0.000000 12.024101 0.248800
			CHANNELS 3 Xrotation Yrotation Zrotation
			JOINT Spine2
			{
				OFFSET 0.000000 11.502998 -0.491200
				CHANNELS 3 Xrotation Yrotation Zrotation
				JOINT Neck
				{
					OFFSET 0.000000 18.430702 -3.123100
					CHANNELS 3 Xrotation Yrotation Zrotation
					JOINT Head
					{
						OFFSET 0.000000 9.051102 1.034000
						CHANNELS 3 Xrotation Yrotation Zrotation
						JOINT HairB
						{
							OFFSET 0.208400 24.786102 24.822300
							CHANNELS 3 Xrotation Yrotation Zrotation
							End Site
							{
								OFFSET 0.000000 32.263779 0.000000
							}
						}
						JOINT HairA
						{
							OFFSET -7.081100 24.428299 23.196600
							CHANNELS 3 Xrotation Yrotation Zrotation
							End Site
							{
								OFFSET 0.000000 32.263779 0.000000
							}
						}
						JOINT Hat
						{
							OFFSET 16.728800 15.048294 -15.439601
							CHANNELS 3 Xrotation Yrotation Zrotation
							End Site
							{
								OFFSET 0.000000 32.263779 0.000000
							}
						}
					}
				}
				JOINT LeftShoulder
				{
					OFFSET 6.197800 13.665199 -4.064700
					CHANNELS 3 Xrotation Yrotation Zrotation
					JOINT LeftArm
					{
						OFFSET 7.778100 -0.187103 -1.709300
						CHANNELS 3 Xrotation Yrotation Zrotation
						JOINT LeftForeArm
						{
							OFFSET 22.049376 0.000000 0.000000
							CHANNELS 3 Xrotation Yrotation Zrotation
							JOINT LeftHand
							{
								OFFSET 23.009392 0.000000 0.000000
								CHANNELS 3 Xrotation Yrotation Zrotation
								JOINT LeftHandThumb1
								{
									OFFSET 3.507191 -2.063065 3.133727
									CHANNELS 3 Xrotation Yrotation Zrotation
									JOINT LeftHandThumb2
									{
										OFFSET 3.101337 -1.790558 1.790558
										CHANNELS 3 Xrotation Yrotation Zrotation
										JOINT LeftHandThumb3
										{
											OFFSET 3.058640 -1.765907 1.765906
											CHANNELS 3 Xrotation Yrotation Zrotation
											End Site
											{
												OFFSET -0.415260 3.926476 -0.049563
											}
										}
									}
								}
								JOINT LeftHandIndex1
								{
									OFFSET 11.334419 -0.901459 3.706815
									CHANNELS 3 Xrotation Yrotation Zrotation
									JOINT LeftHandIndex2
									{
										OFFSET 3.283112 0.000000 0.000000
										CHANNELS 3 Xrotation Yrotation Zrotation
										JOINT LeftHandIndex3
										{
											OFFSET 3.323853 0.000000 0.000000
											CHANNELS 3 Xrotation Yrotation Zrotation
											End Site
											{
												OFFSET -1.135597 3.097809 0.402452
											}
										}
									}
								}
								JOINT LeftHandMiddle1
								{
									OFFSET 11.335861 0.000000 0.000000
									CHANNELS 3 Xrotation Yrotation Zrotation
									JOINT LeftHandMiddle2
									{
										OFFSET 3.410492 0.000000 0.000000
										CHANNELS 3 Xrotation Yrotation Zrotation
										JOINT LeftHandMiddle3
										{
											OFFSET 3.312172 0.000000 0.000000
											CHANNELS 3 Xrotation Yrotation Zrotation
											End Site
											{
												OFFSET -1.150200 3.080154 0.400270
											}
										}
									}
								}
								JOINT LeftHandRing1
								{
									OFFSET 11.514786 -0.013176 -3.003090
									CHANNELS 3 Xrotation Yrotation Zrotation
									JOINT LeftHandRing2
									{
										OFFSET 3.053307 0.000000 0.000000
										CHANNELS 3 Xrotation Yrotation Zrotation
										JOINT LeftHandRing3
										{
											OFFSET 3.295807 0.000000 0.000000
											CHANNELS 3 Xrotation Yrotation Zrotation
											End Site
											{
												OFFSET -1.281006 3.013344 0.375733
											}
										}
									}
								}
								JOINT LeftHandPinky1
								{
									OFFSET 10.518692 -0.960396 -5.730441
									CHANNELS 3 Xrotation Yrotation Zrotation
									JOINT LeftHandPinky2
									{
										OFFSET 2.861649 0.000000 0.000000
										CHANNELS 3 Xrotation Yrotation Zrotation
										JOINT LeftHandPinky3
										{
											OFFSET 2.863380 0.000000 0.000000
											CHANNELS 3 Xrotation Yrotation Zrotation
											End Site
											{
												OFFSET -0.843597 2.711159 0.369971
											}
										}
									}
								}
							}
							JOINT LSleeve
							{
								OFFSET 6.676277 -0.344902 -1.011730
								CHANNELS 3 Xrotation Yrotation Zrotation
								End Site
								{
									OFFSET 0.000000 14.885353 0.000000
								}
							}
						}
					}
				}
				JOINT RightShoulder
				{
					OFFSET -6.197800 13.665199 -4.064700
					CHANNELS 3 Xrotation Yrotation Zrotation
					JOINT RightArm
					{
						OFFSET -7.778100 -0.187103 -1.709300
						CHANNELS 3 Xrotation Yrotation Zrotation
						JOINT RightForeArm
						{
							OFFSET -22.049376 0.000000 0.000000
							CHANNELS 3 Xrotation Yrotation Zrotation
							JOINT RightHand
							{
								OFFSET -23.009392 0.000000 0.000000
								CHANNELS 3 Xrotation Yrotation Zrotation
								JOINT RightHandThumb1
								{
									OFFSET -3.507191 -2.063065 3.133727
									CHANNELS 3 Xrotation Yrotation Zrotation
									JOINT RightHandThumb2
									{
										OFFSET -3.101337 -1.790558 1.790558
										CHANNELS 3 Xrotation Yrotation Zrotation
										JOINT RightHandThumb3
										{
											OFFSET -3.058640 -1.765907 1.765906
											CHANNELS 3 Xrotation Yrotation Zrotation
											End Site
											{
												OFFSET 0.415260 3.926476 -0.049563
											}
										}
									}
								}
								JOINT RightHandIndex1
								{
									OFFSET -11.334419 -0.901459 3.706815
									CHANNELS 3 Xrotation Yrotation Zrotation
									JOINT RightHandIndex2
									{
										OFFSET -3.283112 0.000000 0.000000
										CHANNELS 3 Xrotation Yrotation Zrotation
										JOINT RightHandIndex3
										{
											OFFSET -3.323853 0.000000 0.000000
											CHANNELS 3 Xrotation Yrotation Zrotation
											End Site
											{
												OFFSET 1.135597 3.097809 0.402452
											}
										}
									}
								}
								JOINT RightHandMiddle1
								{
									OFFSET -11.335861 0.000000 0.000000
									CHANNELS 3 Xrotation Yrotation Zrotation
									JOINT RightHandMiddle2
									{
										OFFSET -3.410492 0.000000 0.000000
										CHANNELS 3 Xrotation Yrotation Zrotation
										JOINT RightHandMiddle3
										{
											OFFSET -3.312172 0.000000 0.000000
											CHANNELS 3 Xrotation Yrotation Zrotation
											End Site
											{
												OFFSET 1.150200 3.080154 0.400270
											}
										}
									}
								}
								JOINT RightHandRing1
								{
									OFFSET -11.514786 -0.013176 -3.003090
									CHANNELS 3 Xrotation Yrotation Zrotation
									JOINT RightHandRing2
									{
										OFFSET -3.053307 0.000000 0.000000
										CHANNELS 3 Xrotation Yrotation Zrotation
										JOINT RightHandRing3
										{
											OFFSET -3.295807 0.000000 0.000000
											CHANNELS 3 Xrotation Yrotation Zrotation
											End Site
											{
												OFFSET 1.281006 3.013344 0.375733
											}
										}
									}
								}
								JOINT RightHandPinky1
								{
									OFFSET -10.518692 -0.960396 -5.730441
									CHANNELS 3 Xrotation Yrotation Zrotation
									JOINT RightHandPinky2
									{
										OFFSET -2.861649 0.000000 0.000000
										CHANNELS 3 Xrotation Yrotation Zrotation
										JOINT RightHandPinky3
										{
											OFFSET -2.863380 0.000000 0.000000
											CHANNELS 3 Xrotation Yrotation Zrotation
											End Site
											{
												OFFSET 0.843597 2.711159 0.369971
											}
										}
									}
								}
							}
							JOINT RSleeve
							{
								OFFSET -6.676277 -0.344902 -1.011730
								CHANNELS 3 Xrotation Yrotation Zrotation
								End Site
								{
									OFFSET 0.000000 14.885353 0.000000
								}
							}
						}
					}
				}
				JOINT Backpack
				{
					OFFSET 0.000000 -2.471497 36.677502
					CHANNELS 3 Xrotation Yrotation Zrotation
					End Site
					{
						OFFSET 0.000000 20.427315 0.000000
					}
				}
				JOINT Hood
				{
					OFFSET 0.000000 18.754097 -10.431000
					CHANNELS 3 Xrotation Yrotation Zrotation
					JOINT Hood1
					{
						OFFSET 0.000000 -5.011002 -7.685901
						CHANNELS 3 Xrotation Yrotation Zrotation
						End Site
						{
							OFFSET 0.000000 9.175140 0.000000
						}
					}
				}
				JOINT LHoodieString
				{
					OFFSET 5.250500 16.397697 3.089900
					CHANNELS 3 Xrotation Yrotation Zrotation
					JOINT LHoodieString1
					{
						OFFSET 0.257700 -6.364304 3.694600
						CHANNELS 3 Xrotation Yrotation Zrotation
						JOINT LHoodieString2
						{
							OFFSET 0.000000 -9.643799 2.679100
							CHANNELS 3 Xrotation Yrotation Zrotation
							End Site
							{
								OFFSET 0.000000 10.009018 0.000000
							}
						}
					}
				}
				JOINT RHoodieString
				{
					OFFSET -5.250500 16.397697 3.089900
					CHANNELS 3 Xrotation Yrotation Zrotation
					JOINT RHoodieString1
					{
						OFFSET -0.257700 -6.364304 3.694600
						CHANNELS 3 Xrotation Yrotation Zrotation
						JOINT RHoodieString2
						{
							OFFSET 0.000000 -9.643799 2.679100
							CHANNELS 3 Xrotation Yrotation Zrotation
							End Site
							{
								OFFSET 0.000000 10.009018 0.000000
							}
						}
					}
				}
			}
			JOINT LBackpack_Strap
			{
				OFFSET 15.223200 -7.719803 -6.610900
				CHANNELS 3 Xrotation Yrotation Zrotation
				End Site
				{
					OFFSET 0.000000 16.040596 0.000000
				}
			}
			JOINT RBackpack_Strap
			{
				OFFSET -15.223000 -7.719803 -6.610900
				CHANNELS 3 Xrotation Yrotation Zrotation
				End Site
				{
					OFFSET 0.000000 16.040596 0.000000
				}
			}
		}
	}
	JOINT BoyFacialAnim_Joint
	{
		OFFSET 1.000000 -82.208099 -1.550900
		CHANNELS 3 Xrotation Yrotation Zrotation
		End Site
		{
			OFFSET 0.000000 30.012791 0.000000
		}
	}
}
MOTION
Frames: 5
Frame Time: 0.033333
-0.536095 141.319321 16.908237 0.411315 5.409374 -10.744300 -0.000000 -0.000000 -0.000001 -12.445416 6.831892 13.536418 4.653153 -8.439986 -0.539628 38.930487 -2.993007 -12.512086 -0.000000 0.000000 -0.000001 -0.000000 0.000000 -0.000000 -0.000000 -0.000001 -0.000000 -79.113726 -15.388944 0.459760 104.754495 -9.477940 -0.359575 -21.811991 -15.151839 6.052464 0.000000 0.000001 0.000000 0.000000 0.000001 0.000000 0.000001 -0.000000 -0.000000 25.427744 2.710887 15.289437 5.970515 -0.583651 2.190098 5.980450 -0.586815 2.162732 -13.167006 0.926562 0.787083 6.188912 6.058873 5.506967 -0.000000 -0.000000 -0.000000 -0.000000 -0.000000 -0.000000 -0.000000 -0.000000 -0.000000 -0.751719 6.165660 8.862412 -100.866581 -10.199343 -66.249440 -0.000088 -64.825462 -0.000082 -34.109685 6.655860 17.421849 -1.540032 3.690186 6.142351 3.939063 7.948697 0.746813 -0.000000 0.000002 -0.000001 0.000048 -0.021354 0.177086 0.000031 0.021412 -0.177492 -0.000001 0.000002 -0.000003 0.000042 -0.023283 0.193063 0.000046 0.023343 -0.193470 0.000001 -0.000003 0.000002 0.000040 -0.021362 0.177085 0.000039 0.021420 -0.177493 -0.000001 -0.000002 -0.000004 -0.030597 4.032809 0.688569 -0.017859 -4.032839 -0.688537 0.000001 -0.000004 0.000003 -0.000000 -0.000001 0.000001 -0.696784 -8.489364 -3.741565 -110.035440 23.023637 73.207921 0.000066 56.836340 -0.000070 -16.995746 -11.302371 -5.747456 -1.849262 -3.581795 -6.586152 4.637202 -8.634126 -0.225411 -0.000001 0.000001 -0.000002 0.000031 0.021578 -0.177165 0.000035 -0.021693 0.178006 -0.000001 -0.000002 0.000003 0.000032 0.021579 -0.177154 0.000032 -0.021691 0.178009 0.000003 0.000003 -0.000003 0.000035 0.021577 -0.177158 0.000029 -0.021685 0.178015 0.000002 0.000000 0.000004 0.000026 0.021588 -0.177160 0.000035 -0.021698 0.178006 0.000000 -0.000001 0.000000 -0.000000 -0.000002 0.000001 0.000001 -0.000000 -0.000000 0.000001 -0.000000 -0.000000 0.000001 -0.000000 -0.000000 0.000001 -0.000000 -0.000000 0.000001 -0.000000 -0.000000 0.000001 -0.000000 -0.000000 0.000001 -0.000000 -0.000000 0.000001 -0.000000 -0.000000 0.000001 -0.000000 -0.000000 -0.000001 0.000000 0.000000 -0.000001 0.000000 0.000000 -0.000000 -0.000000 -0.000001 
-0.804344 144.486725 17.569744 1.391791 5.292440 -9.141438 -0.000000 0.000000 -0.000000 -13.430928 6.377804 11.929112 8.031746 -8.703965 -0.638097 40.900269 -5.245158 -10.625304 -0.000003 -0.000000 -0.000001 -0.000003 -0.000000 -0.000001 -0.000000 0.000000 -0.000000 -75.036506 -13.432894 1.443515 98.994590 -9.613201 -0.383470 -21.180073 -15.220416 5.834587 -0.000000 0.000000 0.000000 -0.000000 0.000000 0.000000 -0.000001 -0.000001 0.000000 24.793216 1.651526 13.247874 5.782440 -0.694245 2.058230 5.785284 -0.700106 2.048283 -13.547548 1.066490 -0.072686 4.446418 5.437769 8.022392 0.000001 0.000000 -0.000000 0.000001 0.000000 -0.000000 0.000001 0.000000 -0.000000 -0.037764 3.156978 6.642151 -95.180680 -10.431626 -64.809240 -0.000064 -70.856007 -0.000065 -32.593704 4.999238 16.363258 -1.540031 3.690187 6.142351 3.939064 7.948702 0.746813 0.000000 0.000001 -0.000000 0.000048 -0.021352 0.177084 0.000029 0.021408 -0.177493 0.000001 -0.000002 -0.000005 0.000042 -0.023281 0.193064 0.000047 0.023347 -0.193471 0.000000 -0.000002 -0.000000 0.000041 -0.021358 0.177080 0.000040 0.021422 -0.177491 -0.000001 0.000002 -0.000004 -0.030595 4.032809 0.688567 -0.017860 -4.032840 -0.688539 -0.000001 -0.000000 -0.000000 -0.000001 -0.000001 0.000002 -0.473263 -7.088978 -2.402180 -102.552681 21.442933 73.080203 -0.000016 63.921036 0.000023 -12.461958 -10.473965 -4.521519 -1.849262 -3.581800 -6.586152 4.637202 -8.634128 -0.225408 -0.000001 0.000003 -0.000002 0.000034 0.021574 -0.177163 0.000039 -0.021695 0.178009 -0.000001 -0.000002 0.000002 0.000034 0.021575 -0.177154 0.000031 -0.021693 0.178007 0.000001 0.000002 0.000000 0.000035 0.021572 -0.177155 0.000027 -0.021688 0.178016 -0.000000 0.000002 0.000002 0.000028 0.021583 -0.177154 0.000034 -0.021696 0.178014 0.000000 0.000001 -0.000001 -0.000001 0.000001 -0.000002 -0.000000 0.000000 -0.000000 -0.000000 0.000000 -0.000000 -0.000000 0.000000 -0.000000 -0.000000 0.000000 -0.000000 -0.000000 0.000000 0.000000 -0.000004 0.000000 0.000000 -0.000000 0.000000 -0.000000 -0.000000 0.000000 0.000000 -0.000004 0.000000 0.000000 0.000001 -0.000000 -0.000000 0.000001 -0.000000 -0.000000 -0.000000 0.000000 -0.000000 
-0.916810 147.053345 18.374918 2.710348 5.012708 -8.943163 -0.000000 -0.000000 -0.000001 -20.785922 5.183196 12.534252 22.993658 -8.032408 -0.579477 38.556671 -4.233443 -10.523849 -0.000001 0.000000 -0.000001 -0.000001 0.000000 -0.000000 0.000001 -0.000000 0.000000 -71.863439 -12.604714 2.601129 94.016646 -9.704783 -0.397962 -20.480809 -15.439192 6.349509 -0.000000 0.000001 -0.000000 -0.000000 0.000001 -0.000000 0.000001 -0.000000 0.000000 23.453213 0.917126 12.692486 5.442123 -0.877653 1.896933 5.441056 -0.883024 1.897452 -13.920641 1.334623 -0.799080 3.226173 4.839145 10.249495 -0.000002 0.000000 -0.000000 -0.000002 0.000000 -0.000000 -0.000002 0.000000 -0.000000 0.400082 1.218568 5.221815 -88.844997 -9.094135 -63.863000 0.000011 -76.449611 -0.000000 -31.067959 3.617176 14.721732 -1.540031 3.690194 6.142353 3.939064 7.948703 0.746812 -0.000000 0.000005 -0.000002 0.000046 -0.021350 0.177085 0.000032 0.021410 -0.177494 -0.000001 0.000001 0.000000 0.000041 -0.023285 0.193060 0.000047 0.023347 -0.193470 0.000001 -0.000003 0.000001 0.000040 -0.021357 0.177081 0.000039 0.021421 -0.177490 -0.000001 0.000001 -0.000004 -0.030595 4.032813 0.688570 -0.017864 -4.032837 -0.688533 -0.000001 0.000000 0.000002 0.000003 0.000000 0.000002 -0.113065 -5.053193 -0.764903 -95.999019 20.773624 72.947424 0.000053 68.506292 -0.000065 -9.017593 -8.117997 -3.745460 -1.849260 -3.581798 -6.586151 4.637202 -8.634127 -0.225411 0.000001 0.000002 0.000002 0.000034 0.021579 -0.177166 0.000039 -0.021691 0.178010 -0.000002 -0.000003 0.000007 0.000035 0.021578 -0.177153 0.000032 -0.021688 0.178008 0.000001 -0.000001 -0.000001 0.000035 0.021574 -0.177157 0.000026 -0.021688 0.178016 0.000003 -0.000001 0.000007 0.000031 0.021586 -0.177157 0.000030 -0.021700 0.178013 0.000002 -0.000001 0.000000 0.000002 0.000002 0.000002 0.000004 0.000000 -0.000001 0.000004 0.000000 -0.000001 0.000004 0.000000 -0.000001 0.000004 0.000000 -0.000001 0.000004 0.000000 -0.000000 0.000002 0.000000 0.000000 0.000004 0.000000 -0.000001 0.000004 0.000000 -0.000000 0.000002 0.000000 0.000000 0.000001 0.000000 0.000001 0.000001 0.000000 0.000001 -0.000000 -0.000000 -0.000001 
-1.093005 149.698792 19.203930 4.116362 5.403571 -8.300389 0.000000 0.000000 -0.000001 -27.146841 4.814730 12.869172 35.665554 -7.304886 -0.443878 35.911789 -2.251864 -13.658862 -0.000003 0.000001 -0.000002 -0.000003 0.000001 -0.000002 -0.000002 -0.000000 -0.000000 -68.754200 -11.605790 2.912212 89.132534 -9.747587 -0.410453 -19.760268 -15.663821 7.149679 0.000000 0.000000 0.000000 0.000000 0.000000 0.000000 0.000002 0.000000 0.000000 21.819150 -0.741725 11.737452 5.011530 -1.235372 1.645524 5.007952 -1.238797 1.653486 -14.300872 1.701957 -1.307565 2.568937 4.368418 12.016022 0.000000 0.000000 0.000001 0.000000 0.000000 0.000001 0.000000 0.000000 0.000001 0.950751 -1.304707 3.068301 -82.486719 -8.241801 -61.771398 -0.000293 -81.478624 -0.000305 -29.423673 2.214994 12.525974 -1.540031 3.690190 6.142350 3.939064 7.948699 0.746814 -0.000000 0.000002 0.000001 0.000048 -0.021354 0.177084 0.000030 0.021410 -0.177492 -0.000000 -0.000001 0.000001 0.000042 -0.023281 0.193065 0.000046 0.023346 -0.193471 -0.000001 -0.000003 0.000001 0.000040 -0.021359 0.177080 0.000039 0.021419 -0.177492 0.000001 -0.000004 -0.000003 -0.030596 4.032810 0.688567 -0.017865 -4.032833 -0.688536 -0.000000 0.000000 -0.000004 0.000001 0.000001 -0.000002 0.233641 -3.145369 0.940456 -88.899447 20.377067 72.929386 -0.000080 71.648049 0.000065 -7.179796 -3.202990 -3.740301 -1.849259 -3.581795 -6.586154 4.637201 -8.634130 -0.225411 -0.000000 -0.000002 0.000001 0.000035 0.021583 -0.177169 0.000037 -0.021696 0.178007 -0.000001 -0.000006 0.000003 0.000038 0.021581 -0.177158 0.000031 -0.021686 0.178010 0.000001 0.000000 0.000001 0.000038 0.021576 -0.177158 0.000028 -0.021687 0.178015 -0.000001 0.000002 0.000001 0.000030 0.021588 -0.177157 0.000036 -0.021697 0.178012 -0.000002 -0.000001 -0.000000 -0.000001 -0.000002 0.000000 -0.000003 -0.000000 -0.000000 -0.000003 -0.000000 -0.000000 -0.000003 -0.000000 -0.000000 -0.000003 -0.000000 -0.000000 -0.000003 -0.000000 -0.000000 -0.000001 0.000000 -0.000000 -0.000003 -0.000000 -0.000000 -0.000003 -0.000000 -0.000000 -0.000001 0.000000 -0.000000 0.000002 0.000000 -0.000000 0.000002 0.000000 -0.000000 0.000000 0.000000 -0.000001 
-1.323705 152.463699 19.980709 4.978790 6.534886 -7.325481 0.000000 0.000000 0.000000 -32.856041 4.758575 12.998851 47.841476 -4.226172 -0.268174 31.422244 -1.972659 -14.734060 -0.000000 -0.000001 -0.000002 -0.000000 -0.000001 -0.000001 -0.000000 -0.000000 -0.000000 -64.972741 -10.450963 2.764826 83.901067 -9.748052 -0.430952 -18.936457 -16.110524 7.662589 0.000000 0.000002 0.000000 0.000000 0.000002 0.000000 0.000003 0.000000 -0.000000 20.518465 -2.566249 10.957933 4.652329 -1.624564 1.417528 4.648059 -1.624997 1.430426 -14.774544 1.931533 -1.689106 2.187649 3.730349 13.051486 -0.000002 -0.000000 0.000000 -0.000002 -0.000000 0.000000 -0.000002 -0.000000 0.000000 1.766778 -5.497263 -0.757725 -77.063501 -8.903668 -56.757363 -0.000295 -85.126567 -0.000347 -27.861774 0.043011 10.793106 -1.540031 3.690185 6.142351 3.939064 7.948692 0.746814 0.000000 0.000004 0.000001 0.000048 -0.021354 0.177084 0.000031 0.021411 -0.177494 0.000001 -0.000003 -0.000000 0.000042 -0.023284 0.193061 0.000045 0.023346 -0.193473 0.000001 0.000001 0.000000 0.000039 -0.021360 0.177082 0.000037 0.021422 -0.177491 -0.000000 -0.000001 -0.000004 -0.030596 4.032809 0.688569 -0.017860 -4.032837 -0.688533 -0.000000 0.000000 -0.000000 0.000001 0.000002 -0.000001 0.442071 -2.023140 2.167652 -82.087754 20.238916 73.130159 0.000117 73.533222 -0.000114 -6.857006 3.538915 -4.080291 -1.849263 -3.581792 -6.586155 4.637203 -8.634129 -0.225410 -0.000001 0.000002 0.000001 0.000031 0.021583 -0.177166 0.000040 -0.021691 0.178006 0.000000 0.000004 0.000004 0.000036 0.021581 -0.177155 0.000032 -0.021688 0.178010 0.000003 -0.000001 0.000001 0.000034 0.021581 -0.177158 0.000029 -0.021684 0.178013 0.000001 0.000002 0.000004 0.000025 0.021595 -0.177157 0.000035 -0.021698 0.178008 0.000002 0.000002 -0.000003 -0.000001 -0.000000 -0.000000 0.000005 -0.000000 0.000000 0.000005 -0.000000 0.000000 0.000005 -0.000000 0.000000 0.000005 -0.000000 0.000000 0.000005 -0.000000 0.000000 0.000005 -0.000000 0.000000 0.000005 -0.000000 0.000000 0.000005 -0.000000 0.000000 0.000005 -0.000000 0.000000 -0.000001 0.000000 -0.000000 -0.000001 0.000000 -0.000000 0.000000 0.000000 0.000000 
